<svg width="36" height="36" viewBox="0 0 36 36" fill="none" xmlns="http://www.w3.org/2000/svg">
<g clip-path="url(#clip0_79_3)">
<path fill-rule="evenodd" clip-rule="evenodd" d="M23.5605 16.9395C23.8417 17.2208 23.9997 17.6022 23.9997 18C23.9997 18.3977 23.8417 18.7792 23.5605 19.0605L15.075 27.546C14.9366 27.6893 14.7711 27.8035 14.5881 27.8821C14.4051 27.9608 14.2083 28.0021 14.0091 28.0039C13.8099 28.0056 13.6124 27.9676 13.4281 27.8922C13.2437 27.8168 13.0762 27.7054 12.9354 27.5646C12.7946 27.4237 12.6832 27.2563 12.6078 27.0719C12.5323 26.8876 12.4944 26.6901 12.4961 26.4909C12.4979 26.2917 12.5392 26.0949 12.6178 25.9119C12.6965 25.7289 12.8107 25.5634 12.954 25.425L20.379 18L12.954 10.575C12.6808 10.2921 12.5296 9.91319 12.533 9.51989C12.5364 9.1266 12.6942 8.75038 12.9723 8.47227C13.2504 8.19416 13.6266 8.0364 14.0199 8.03299C14.4132 8.02957 14.7921 8.18076 15.075 8.454L23.5605 16.9395Z" fill="black"/>
</g>
<defs>
<clipPath id="clip0_79_3">
<rect width="36" height="36" fill="white"/>
</clipPath>
</defs>
</svg>
